# xmcd CD database file
#
# Track frame offsets:
#	183
#	22218
#	40828
#	58638
#	85600
#	98725
#	121763
#	126013
#	139275
#	158108
#	172510
#	187100
#	205608
#	218565
#
# Disc length: 3089 seconds
#
# Revision: 0
# Processed by: cddbd v1.4PL0 Copyright (c) Steve Scherf et al.
# Submitted via: CDex 1.50beta8
#
DISCID=b30c0f0e
DTITLE=Das Pferd - Blue turns to grey
DYEAR=1991
DGENRE=Jazz
TTITLE0=Something happens to the sun
TTITLE1=What's next
TTITLE2=Three secrets
TTITLE3=The Z-song
TTITLE4=Blue turns to grey
TTITLE5=Espelhos d'Agua
TTITLE6=Don't try to sell a horse
TTITLE7=The real blues
TTITLE8=View to other side
TTITLE9=No regret
TTITLE10=Estrango
TTITLE11=I'd like to be an Italian
TTITLE12=Twenty years later
TTITLE13=Behind the walls
EXTD=YEAR: 1991
EXTT0=
EXTT1=
EXTT2=
EXTT3=
EXTT4=
EXTT5=
EXTT6=
EXTT7=
EXTT8=
EXTT9=
EXTT10=
EXTT11=
EXTT12=
EXTT13=
PLAYORDER=
